<mxfile host="app.diagrams.net" modified="2022-11-11T05:50:05.086Z" agent="5.0 (Macintosh; Intel Mac OS X 10_14_6) AppleWebKit/537.36 (KHTML, like Gecko) Chrome/106.0.0.0 Safari/537.36" etag="SZw1e2injTCyjatJnXsg" version="20.4.1" type="github">
  <diagram id="_2H_7gOdbjpE27JCmU6C" name="第 1 页">
    <mxGraphModel dx="946" dy="591" grid="1" gridSize="10" guides="1" tooltips="1" connect="1" arrows="1" fold="1" page="1" pageScale="1" pageWidth="827" pageHeight="1169" math="0" shadow="0">
      <root>
        <mxCell id="0" />
        <mxCell id="1" parent="0" />
        <mxCell id="HJMY5x-vd4g9t8Cu7ISa-10" value="" style="rounded=0;whiteSpace=wrap;html=1;fontSize=20;fillColor=#f5f5f5;dashed=1;fontColor=#333333;strokeColor=#666666;" vertex="1" parent="1">
          <mxGeometry x="220" y="686" width="470" height="154" as="geometry" />
        </mxCell>
        <mxCell id="HJMY5x-vd4g9t8Cu7ISa-5" value="" style="rounded=0;whiteSpace=wrap;html=1;fontSize=20;fillColor=#f5f5f5;dashed=1;fontColor=#333333;strokeColor=#666666;" vertex="1" parent="1">
          <mxGeometry x="220" y="60" width="470" height="600" as="geometry" />
        </mxCell>
        <mxCell id="HJMY5x-vd4g9t8Cu7ISa-15" value="" style="rounded=1;whiteSpace=wrap;html=1;dashed=1;fontSize=11;fillColor=#fff2cc;strokeColor=#d6b656;" vertex="1" parent="1">
          <mxGeometry x="260" y="320" width="390" height="310" as="geometry" />
        </mxCell>
        <mxCell id="HJMY5x-vd4g9t8Cu7ISa-1" value="&lt;font style=&quot;font-size: 20px;&quot;&gt;缓存&lt;/font&gt;" style="rounded=1;whiteSpace=wrap;html=1;strokeWidth=2;fillWeight=4;hachureGap=8;hachureAngle=45;fillColor=#cdeb8b;sketch=1;strokeColor=#36393d;" vertex="1" parent="1">
          <mxGeometry x="500" y="138" width="120" height="60" as="geometry" />
        </mxCell>
        <mxCell id="HJMY5x-vd4g9t8Cu7ISa-12" value="" style="edgeStyle=orthogonalEdgeStyle;rounded=0;orthogonalLoop=1;jettySize=auto;html=1;exitX=0.5;exitY=1;exitDx=0;exitDy=0;entryX=0.5;entryY=0;entryDx=0;entryDy=0;fontSize=20;" edge="1" parent="1" source="HJMY5x-vd4g9t8Cu7ISa-2" target="HJMY5x-vd4g9t8Cu7ISa-6">
          <mxGeometry relative="1" as="geometry" />
        </mxCell>
        <mxCell id="HJMY5x-vd4g9t8Cu7ISa-2" value="连接器" style="rounded=1;whiteSpace=wrap;html=1;fontSize=20;fillColor=#e1d5e7;strokeColor=#9673a6;" vertex="1" parent="1">
          <mxGeometry x="306" y="138" width="120" height="60" as="geometry" />
        </mxCell>
        <mxCell id="HJMY5x-vd4g9t8Cu7ISa-20" value="" style="edgeStyle=orthogonalEdgeStyle;curved=1;orthogonalLoop=1;jettySize=auto;html=1;fontSize=11;" edge="1" parent="1" source="HJMY5x-vd4g9t8Cu7ISa-6" target="HJMY5x-vd4g9t8Cu7ISa-7">
          <mxGeometry relative="1" as="geometry" />
        </mxCell>
        <mxCell id="HJMY5x-vd4g9t8Cu7ISa-6" value="解析器" style="rounded=1;whiteSpace=wrap;html=1;fontSize=20;fillColor=#ffe6cc;strokeColor=#d79b00;" vertex="1" parent="1">
          <mxGeometry x="306" y="238" width="120" height="60" as="geometry" />
        </mxCell>
        <mxCell id="HJMY5x-vd4g9t8Cu7ISa-21" value="" style="edgeStyle=orthogonalEdgeStyle;curved=1;orthogonalLoop=1;jettySize=auto;html=1;fontSize=11;" edge="1" parent="1" source="HJMY5x-vd4g9t8Cu7ISa-7" target="HJMY5x-vd4g9t8Cu7ISa-8">
          <mxGeometry relative="1" as="geometry" />
        </mxCell>
        <mxCell id="HJMY5x-vd4g9t8Cu7ISa-7" value="预处理器" style="rounded=1;whiteSpace=wrap;html=1;fontSize=20;fillColor=#dae8fc;strokeColor=#6c8ebf;" vertex="1" parent="1">
          <mxGeometry x="306" y="345" width="120" height="60" as="geometry" />
        </mxCell>
        <mxCell id="HJMY5x-vd4g9t8Cu7ISa-22" value="" style="edgeStyle=orthogonalEdgeStyle;curved=1;orthogonalLoop=1;jettySize=auto;html=1;fontSize=11;" edge="1" parent="1" source="HJMY5x-vd4g9t8Cu7ISa-8" target="HJMY5x-vd4g9t8Cu7ISa-9">
          <mxGeometry relative="1" as="geometry" />
        </mxCell>
        <mxCell id="HJMY5x-vd4g9t8Cu7ISa-31" value="" style="edgeStyle=orthogonalEdgeStyle;curved=1;orthogonalLoop=1;jettySize=auto;html=1;fontSize=14;" edge="1" parent="1" source="HJMY5x-vd4g9t8Cu7ISa-8" target="HJMY5x-vd4g9t8Cu7ISa-30">
          <mxGeometry relative="1" as="geometry" />
        </mxCell>
        <mxCell id="HJMY5x-vd4g9t8Cu7ISa-8" value="优化器" style="rounded=1;whiteSpace=wrap;html=1;fontSize=20;fillColor=#f8cecc;strokeColor=#b85450;" vertex="1" parent="1">
          <mxGeometry x="306" y="447" width="120" height="60" as="geometry" />
        </mxCell>
        <mxCell id="HJMY5x-vd4g9t8Cu7ISa-29" style="edgeStyle=orthogonalEdgeStyle;curved=1;orthogonalLoop=1;jettySize=auto;html=1;exitX=0.5;exitY=1;exitDx=0;exitDy=0;entryX=0.5;entryY=0;entryDx=0;entryDy=0;fontSize=11;" edge="1" parent="1" source="HJMY5x-vd4g9t8Cu7ISa-9" target="HJMY5x-vd4g9t8Cu7ISa-23">
          <mxGeometry relative="1" as="geometry" />
        </mxCell>
        <mxCell id="HJMY5x-vd4g9t8Cu7ISa-9" value="执行器" style="rounded=1;whiteSpace=wrap;html=1;fontSize=20;fillColor=#d5e8d4;strokeColor=#82b366;" vertex="1" parent="1">
          <mxGeometry x="306" y="543" width="120" height="60" as="geometry" />
        </mxCell>
        <mxCell id="HJMY5x-vd4g9t8Cu7ISa-11" value="" style="outlineConnect=0;dashed=0;verticalLabelPosition=bottom;verticalAlign=top;align=center;html=1;shape=mxgraph.aws3.management_console;fillColor=#b0e3e6;fontSize=20;strokeColor=#0e8088;" vertex="1" parent="1">
          <mxGeometry x="97" y="136.5" width="63" height="63" as="geometry" />
        </mxCell>
        <mxCell id="HJMY5x-vd4g9t8Cu7ISa-18" value="" style="shape=flexArrow;endArrow=classic;startArrow=classic;html=1;fontSize=11;curved=1;" edge="1" parent="1" source="HJMY5x-vd4g9t8Cu7ISa-2">
          <mxGeometry width="100" height="100" relative="1" as="geometry">
            <mxPoint x="426" y="268" as="sourcePoint" />
            <mxPoint x="500" y="168" as="targetPoint" />
          </mxGeometry>
        </mxCell>
        <mxCell id="HJMY5x-vd4g9t8Cu7ISa-23" value="Innodb" style="rounded=1;whiteSpace=wrap;html=1;fontSize=11;fillColor=#CCFFFF;" vertex="1" parent="1">
          <mxGeometry x="306" y="748" width="120" height="60" as="geometry" />
        </mxCell>
        <mxCell id="HJMY5x-vd4g9t8Cu7ISa-24" value="" style="shape=cylinder3;whiteSpace=wrap;html=1;boundedLbl=1;backgroundOutline=1;size=15;fontSize=11;fillColor=#CCFFE6;" vertex="1" parent="1">
          <mxGeometry x="500" y="744.5" width="100" height="67" as="geometry" />
        </mxCell>
        <mxCell id="HJMY5x-vd4g9t8Cu7ISa-26" value="" style="shape=flexArrow;endArrow=classic;startArrow=classic;html=1;fontSize=11;curved=1;exitX=1;exitY=0.5;exitDx=0;exitDy=0;" edge="1" parent="1" source="HJMY5x-vd4g9t8Cu7ISa-23" target="HJMY5x-vd4g9t8Cu7ISa-24">
          <mxGeometry width="100" height="100" relative="1" as="geometry">
            <mxPoint x="410" y="955" as="sourcePoint" />
            <mxPoint x="510" y="855" as="targetPoint" />
          </mxGeometry>
        </mxCell>
        <mxCell id="HJMY5x-vd4g9t8Cu7ISa-42" style="edgeStyle=orthogonalEdgeStyle;curved=1;orthogonalLoop=1;jettySize=auto;html=1;exitX=0;exitY=0.5;exitDx=0;exitDy=0;fontSize=14;" edge="1" parent="1" source="HJMY5x-vd4g9t8Cu7ISa-30" target="HJMY5x-vd4g9t8Cu7ISa-9">
          <mxGeometry relative="1" as="geometry" />
        </mxCell>
        <mxCell id="HJMY5x-vd4g9t8Cu7ISa-30" value="执行计划" style="shape=parallelogram;perimeter=parallelogramPerimeter;whiteSpace=wrap;html=1;fixedSize=1;fontSize=14;fillColor=#ffff88;fontStyle=1;strokeColor=#36393d;" vertex="1" parent="1">
          <mxGeometry x="500" y="543" width="120" height="60" as="geometry" />
        </mxCell>
        <mxCell id="HJMY5x-vd4g9t8Cu7ISa-37" value="" style="shape=flexArrow;endArrow=classic;startArrow=classic;html=1;fontSize=14;curved=1;fillColor=#fff2cc;strokeColor=#d6b656;" edge="1" parent="1">
          <mxGeometry width="100" height="100" relative="1" as="geometry">
            <mxPoint x="180" y="167.5" as="sourcePoint" />
            <mxPoint x="290" y="167.5" as="targetPoint" />
          </mxGeometry>
        </mxCell>
        <mxCell id="HJMY5x-vd4g9t8Cu7ISa-38" value="客户端" style="text;html=1;align=center;verticalAlign=middle;resizable=0;points=[];autosize=1;strokeColor=none;fillColor=none;fontSize=14;" vertex="1" parent="1">
          <mxGeometry x="95" y="205" width="70" height="30" as="geometry" />
        </mxCell>
        <mxCell id="HJMY5x-vd4g9t8Cu7ISa-39" value="&lt;b&gt;执行sql&lt;/b&gt;" style="text;html=1;strokeColor=none;fillColor=none;align=center;verticalAlign=middle;whiteSpace=wrap;rounded=0;fontSize=14;" vertex="1" parent="1">
          <mxGeometry x="550" y="340" width="60" height="30" as="geometry" />
        </mxCell>
        <mxCell id="HJMY5x-vd4g9t8Cu7ISa-40" value="&lt;b&gt;Server层&lt;/b&gt;" style="text;html=1;strokeColor=none;fillColor=none;align=center;verticalAlign=middle;whiteSpace=wrap;rounded=0;fontSize=14;" vertex="1" parent="1">
          <mxGeometry x="600" y="80" width="60" height="30" as="geometry" />
        </mxCell>
        <mxCell id="HJMY5x-vd4g9t8Cu7ISa-41" value="&lt;b&gt;存储引擎层&lt;/b&gt;" style="text;html=1;strokeColor=none;fillColor=none;align=center;verticalAlign=middle;whiteSpace=wrap;rounded=0;fontSize=14;" vertex="1" parent="1">
          <mxGeometry x="580" y="700" width="90" height="30" as="geometry" />
        </mxCell>
      </root>
    </mxGraphModel>
  </diagram>
</mxfile>
